<?xml version="1.0" encoding="UTF-8" standalone="no"?>
<!DOCTYPE svg PUBLIC "-//W3C//DTD SVG 1.1//EN" "http://www.w3.org/Graphics/SVG/1.1/DTD/svg11.dtd">
<svg width="100%" height="100%" viewBox="0 0 1363 375" version="1.1" xmlns="http://www.w3.org/2000/svg" xmlns:xlink="http://www.w3.org/1999/xlink" xml:space="preserve" xmlns:serif="http://www.serif.com/" style="fill-rule:evenodd;clip-rule:evenodd;stroke-linejoin:round;stroke-miterlimit:2;">
    <g transform="matrix(4.16667,0,0,4.16667,0,0)">
        <rect x="0" y="3.407" width="8.889" height="59.854" style="fill:rgb(158,30,99);fill-rule:nonzero;"/>
        <path d="M43.797,49.256L43.797,53.09C43.797,59.871 40.247,63.261 33.148,63.261L27.407,63.261C20.308,63.261 16.759,59.871 16.759,53.09L16.759,13.577C16.759,6.797 20.308,3.407 27.407,3.407L33.148,3.407C40.247,3.407 43.797,6.797 43.797,13.577L43.797,20.329L34.908,20.329L34.908,14.161C34.908,11.826 33.58,10.659 30.926,10.659L29.167,10.659C26.82,10.659 25.648,11.826 25.648,14.161L25.648,52.507C25.648,54.841 26.82,56.008 29.167,56.008L31.389,56.008C33.734,56.008 34.908,54.841 34.908,52.507L34.908,49.256L43.797,49.256Z" style="fill:rgb(158,30,99);fill-rule:nonzero;"/>
        <path d="M77.317,49.256L77.317,53.09C77.317,59.871 73.767,63.261 66.668,63.261L60.927,63.261C53.828,63.261 50.279,59.871 50.279,53.09L50.279,13.577C50.279,6.797 53.828,3.407 60.927,3.407L66.668,3.407C73.767,3.407 77.317,6.797 77.317,13.577L77.317,20.329L68.428,20.329L68.428,14.161C68.428,11.826 67.1,10.659 64.446,10.659L62.687,10.659C60.34,10.659 59.168,11.826 59.168,14.161L59.168,52.507C59.168,54.841 60.34,56.008 62.687,56.008L64.909,56.008C67.254,56.008 68.428,54.841 68.428,52.507L68.428,49.256L77.317,49.256Z" style="fill:rgb(158,30,99);fill-rule:nonzero;"/>
        <path d="M113.06,3.407L102.318,63.261L91.762,63.261L81.021,3.407L89.817,3.407L97.04,49.089L104.263,3.407L113.06,3.407Z" style="fill:rgb(158,30,99);fill-rule:nonzero;"/>
        <path d="M216.756,34.182L216.756,20.079L211.888,20.079L211.888,34.182L207.927,34.182L207.927,3.122L211.888,3.122L211.888,16.316L216.756,16.316L216.756,3.122L220.716,3.122L220.716,34.182L216.756,34.182Z" style="fill:rgb(158,30,99);fill-rule:nonzero;"/>
        <path d="M229.957,30.418L231.979,30.418C233.023,30.418 233.546,29.812 233.546,28.601L233.546,8.703C233.546,7.492 232.954,6.886 231.772,6.886L229.916,6.886C228.761,6.886 228.183,7.492 228.183,8.703L228.183,28.601C228.183,29.812 228.774,30.418 229.957,30.418ZM229.008,34.182C225.817,34.182 224.223,32.423 224.223,28.904L224.223,8.443C224.223,4.896 225.804,3.122 228.967,3.122L232.763,3.122C235.925,3.122 237.507,4.896 237.507,8.443L237.507,28.904C237.507,32.423 235.911,34.182 232.721,34.182L229.008,34.182Z" style="fill:rgb(158,30,99);fill-rule:nonzero;"/>
        <path d="M249.223,18.133L249.223,3.122L253.184,3.122L253.184,34.182L249.223,34.182L249.223,27.995L244.974,13.85L244.974,34.182L241.013,34.182L241.013,3.122L244.974,3.122L249.223,18.133Z" style="fill:rgb(158,30,99);fill-rule:nonzero;"/>
        <path d="M262.425,30.418L264.446,30.418C265.491,30.418 266.014,29.812 266.014,28.601L266.014,8.703C266.014,7.492 265.422,6.886 264.24,6.886L262.384,6.886C261.229,6.886 260.65,7.492 260.65,8.703L260.65,28.601C260.65,29.812 261.242,30.418 262.425,30.418ZM261.476,34.182C258.285,34.182 256.69,32.423 256.69,28.904L256.69,8.443C256.69,4.896 258.271,3.122 261.435,3.122L265.23,3.122C268.393,3.122 269.975,4.896 269.975,8.443L269.975,28.904C269.975,32.423 268.379,34.182 265.188,34.182L261.476,34.182Z" style="fill:rgb(158,30,99);fill-rule:nonzero;"/>
        <path d="M282.887,34.182L273.48,34.182L273.48,3.122L277.441,3.122L277.441,30.418L282.887,30.418L282.887,34.182Z" style="fill:rgb(158,30,99);fill-rule:nonzero;"/>
        <path d="M298.027,3.122L298.027,28.299C298.027,32.221 296.432,34.182 293.241,34.182L289.899,34.182C286.736,34.182 285.155,32.206 285.155,28.255L285.155,3.122L289.116,3.122L289.116,28.385C289.116,29.741 289.693,30.418 290.849,30.418L292.458,30.418C293.53,30.418 294.066,29.741 294.066,28.385L294.066,3.122L298.027,3.122Z" style="fill:rgb(158,30,99);fill-rule:nonzero;"/>
        <path d="M311.147,34.182L301.74,34.182L301.74,3.122L305.701,3.122L305.701,30.418L311.147,30.418L311.147,34.182Z" style="fill:rgb(158,30,99);fill-rule:nonzero;"/>
        <path d="M326.287,3.122L326.287,28.299C326.287,32.221 324.691,34.182 321.501,34.182L318.159,34.182C314.996,34.182 313.415,32.206 313.415,28.255L313.415,3.122L317.376,3.122L317.376,28.385C317.376,29.741 317.953,30.418 319.108,30.418L320.718,30.418C321.79,30.418 322.326,29.741 322.326,28.385L322.326,3.122L326.287,3.122Z" style="fill:rgb(158,30,99);fill-rule:nonzero;"/>
        <path d="M220.236,85.888L220.236,65.872L213.327,65.872L213.327,85.888L207.705,85.888L207.705,41.804L213.327,41.804L213.327,60.531L220.236,60.531L220.236,41.804L225.857,41.804L225.857,85.888L220.236,85.888Z" style="fill:rgb(158,30,99);fill-rule:nonzero;"/>
        <path d="M243.249,64.399L243.249,49.724C243.249,48.005 242.429,47.146 240.789,47.146L239.267,47.146C237.627,47.146 236.808,48.005 236.808,49.724L236.808,64.399L243.249,64.399ZM236.808,85.888L231.186,85.888L231.186,49.356C231.186,44.321 233.431,41.804 237.92,41.804L242.136,41.804C246.625,41.804 248.87,44.321 248.87,49.356L248.87,85.888L243.249,85.888L243.249,69.741L236.808,69.741L236.808,85.888Z" style="fill:rgb(158,30,99);fill-rule:nonzero;"/>
        <path d="M283.756,41.804L277.549,85.888L271.459,85.888L268.004,60.346L264.608,85.888L258.518,85.888L252.311,41.804L257.874,41.804L261.855,74.836L265.838,41.804L270.229,41.804L274.211,74.836L278.193,41.804L283.756,41.804Z" style="fill:rgb(158,30,99);fill-rule:nonzero;"/>
        <path d="M298.513,64.399L298.513,49.724C298.513,48.005 297.692,47.146 296.053,47.146L294.53,47.146C292.891,47.146 292.071,48.005 292.071,49.724L292.071,64.399L298.513,64.399ZM292.071,85.888L286.449,85.888L286.449,49.356C286.449,44.321 288.694,41.804 293.184,41.804L297.399,41.804C301.889,41.804 304.134,44.321 304.134,49.356L304.134,85.888L298.513,85.888L298.513,69.741L292.071,69.741L292.071,85.888Z" style="fill:rgb(158,30,99);fill-rule:nonzero;"/>
        <rect x="309.461" y="41.804" width="5.622" height="44.084" style="fill:rgb(158,30,99);fill-rule:nonzero;"/>
        <rect x="320.703" y="41.804" width="5.622" height="44.084" style="fill:rgb(158,30,99);fill-rule:nonzero;"/>
        <path d="M3.463,83.76L4.663,83.76C5.284,83.76 5.594,83.417 5.594,82.732L5.594,71.461C5.594,70.776 5.243,70.432 4.541,70.432L3.438,70.432C2.752,70.432 2.409,70.776 2.409,71.461L2.409,82.732C2.409,83.417 2.76,83.76 3.463,83.76ZM2.899,85.892C1.004,85.892 0.057,84.896 0.057,82.903L0.057,71.315C0.057,69.305 0.996,68.301 2.875,68.301L5.128,68.301C7.007,68.301 7.946,69.305 7.946,71.315L7.946,82.903C7.946,84.896 6.999,85.892 5.104,85.892L2.899,85.892Z" style="fill:rgb(158,30,99);fill-rule:nonzero;"/>
        <path d="M17.06,81.776L17.06,82.903C17.06,84.896 16.12,85.892 14.242,85.892L12.723,85.892C10.845,85.892 9.906,84.896 9.906,82.903L9.906,71.29C9.906,69.297 10.845,68.301 12.723,68.301L14.242,68.301C16.12,68.301 17.06,69.297 17.06,71.29L17.06,73.275L14.708,73.275L14.708,71.461C14.708,70.776 14.356,70.432 13.654,70.432L13.189,70.432C12.568,70.432 12.258,70.776 12.258,71.461L12.258,82.732C12.258,83.417 12.568,83.76 13.189,83.76L13.777,83.76C14.398,83.76 14.708,83.417 14.708,82.732L14.708,81.776L17.06,81.776Z" style="fill:rgb(158,30,99);fill-rule:nonzero;"/>
        <path d="M22.646,70.432L22.646,85.892L20.294,85.892L20.294,70.432L18.04,70.432L18.04,68.301L24.9,68.301L24.9,70.432L22.646,70.432Z" style="fill:rgb(158,30,99);fill-rule:nonzero;"/>
        <path d="M29.971,72.197L29.432,70.579C30.036,70.351 30.55,70.033 30.976,69.623C31.4,69.215 31.735,68.775 31.98,68.301L32.225,68.301L33.769,69.134L33.769,85.892L31.441,85.892L31.441,71.755L29.971,72.197Z" style="fill:rgb(158,30,99);fill-rule:nonzero;"/>
        <path d="M40.922,77.317L40.922,71.486C40.922,70.784 40.538,70.432 39.771,70.432L39.501,70.432C38.799,70.432 38.448,70.784 38.448,71.486L38.448,76.043C38.448,76.892 38.799,77.317 39.501,77.317L40.922,77.317ZM38.595,81.776L38.595,82.487C38.595,83.336 38.946,83.76 39.648,83.76L39.991,83.76C40.612,83.76 40.922,83.417 40.922,82.732L40.922,78.468L39.452,79.449L38.913,79.449C37.035,79.449 36.096,78.404 36.096,76.313L36.096,71.388C36.096,69.33 37.035,68.301 38.913,68.301L40.457,68.301C42.335,68.301 43.274,69.33 43.274,71.388L43.274,82.756C43.274,84.847 42.335,85.892 40.457,85.892L39.06,85.892C37.182,85.892 36.243,84.847 36.243,82.756L36.243,81.776L38.595,81.776Z" style="fill:rgb(158,30,99);fill-rule:nonzero;"/>
        <rect x="44.67" y="77.047" width="5.391" height="1.96" style="fill:rgb(158,30,99);fill-rule:nonzero;"/>
        <path d="M57.998,83.785L57.998,85.892L51.677,85.892L51.677,80.478C51.677,80.183 51.702,79.939 51.751,79.743C51.799,79.546 51.885,79.363 52.008,79.191C52.13,79.02 52.347,78.779 52.657,78.468L55.034,76.19C55.213,76.01 55.356,75.856 55.462,75.724C55.568,75.594 55.642,75.484 55.683,75.394C55.723,75.304 55.748,75.21 55.756,75.112C55.764,75.014 55.769,74.883 55.769,74.72L55.769,71.461C55.769,70.776 55.434,70.432 54.764,70.432L54.617,70.432C53.947,70.432 53.612,70.776 53.612,71.461L53.612,73.275L51.261,73.275L51.261,71.315C51.261,69.305 52.2,68.301 54.078,68.301L55.303,68.301C57.181,68.301 58.121,69.305 58.121,71.315L58.121,75.529C58.121,75.856 58.075,76.141 57.986,76.386C57.896,76.631 57.663,76.933 57.288,77.292L54.69,79.791C54.364,80.102 54.176,80.315 54.127,80.428C54.078,80.543 54.049,80.658 54.041,80.772C54.033,80.886 54.029,81.041 54.029,81.237L54.029,83.785L57.998,83.785Z" style="fill:rgb(158,30,99);fill-rule:nonzero;"/>
        <path d="M65.715,76.852C66.94,77.178 67.553,77.921 67.553,79.081L67.553,82.903C67.553,84.896 66.613,85.892 64.735,85.892L63.143,85.892C61.264,85.892 60.325,84.896 60.325,82.903L60.325,81.776L62.677,81.776L62.677,82.732C62.677,83.417 62.987,83.76 63.608,83.76L64.147,83.76C64.849,83.76 65.201,83.417 65.201,82.732L65.201,79.106C65.201,78.338 64.743,77.953 63.829,77.953L63.191,77.953L63.191,75.969L63.535,75.969C64.449,75.969 64.907,75.586 64.907,74.818L64.907,71.486C64.907,70.8 64.555,70.457 63.853,70.457L63.535,70.457C62.914,70.457 62.604,70.8 62.604,71.486L62.604,73.275L60.252,73.275L60.252,71.315C60.252,69.305 61.19,68.301 63.069,68.301L64.441,68.301C66.319,68.301 67.258,69.305 67.258,71.315L67.258,74.818C67.258,75.929 66.744,76.607 65.715,76.852Z" style="fill:rgb(158,30,99);fill-rule:nonzero;"/>
        <path d="M69.292,88.807L70.419,85.892L69.267,85.892L69.267,82.854L71.889,82.854L71.889,85.892L70.713,88.807L69.292,88.807Z" style="fill:rgb(158,30,99);fill-rule:nonzero;"/>
        <path d="M84.188,83.785L84.188,85.892L77.867,85.892L77.867,80.478C77.867,80.183 77.891,79.939 77.94,79.743C77.989,79.546 78.075,79.363 78.197,79.191C78.32,79.02 78.536,78.779 78.847,78.468L81.223,76.19C81.402,76.01 81.545,75.856 81.652,75.724C81.758,75.594 81.831,75.484 81.872,75.394C81.913,75.304 81.938,75.21 81.946,75.112C81.954,75.014 81.958,74.883 81.958,74.72L81.958,71.461C81.958,70.776 81.623,70.432 80.954,70.432L80.807,70.432C80.137,70.432 79.802,70.776 79.802,71.461L79.802,73.275L77.45,73.275L77.45,71.315C77.45,69.305 78.389,68.301 80.268,68.301L81.493,68.301C83.371,68.301 84.31,69.305 84.31,71.315L84.31,75.529C84.31,75.856 84.265,76.141 84.175,76.386C84.085,76.631 83.853,76.933 83.477,77.292L80.88,79.791C80.553,80.102 80.365,80.315 80.316,80.428C80.268,80.543 80.239,80.658 80.231,80.772C80.222,80.886 80.218,81.041 80.218,81.237L80.218,83.785L84.188,83.785Z" style="fill:rgb(158,30,99);fill-rule:nonzero;"/>
        <path d="M89.969,70.432C89.348,70.432 89.038,70.776 89.038,71.461L89.038,82.732C89.038,83.417 89.389,83.76 90.091,83.76L90.68,83.76C91.3,83.76 91.61,83.417 91.61,82.732L91.61,71.461C91.61,70.776 91.259,70.432 90.557,70.432L89.969,70.432ZM89.503,85.892C87.625,85.892 86.686,84.887 86.686,82.878L86.686,71.315C86.686,69.305 87.625,68.301 89.503,68.301L91.145,68.301C93.023,68.301 93.962,69.305 93.962,71.315L93.962,82.878C93.962,84.887 93.023,85.892 91.145,85.892L89.503,85.892Z" style="fill:rgb(158,30,99);fill-rule:nonzero;"/>
        <path d="M102.709,83.785L102.709,85.892L96.388,85.892L96.388,80.478C96.388,80.183 96.413,79.939 96.461,79.743C96.51,79.546 96.596,79.363 96.719,79.191C96.841,79.02 97.058,78.779 97.368,78.468L99.745,76.19C99.924,76.01 100.067,75.856 100.174,75.724C100.28,75.594 100.353,75.484 100.394,75.394C100.435,75.304 100.459,75.21 100.468,75.112C100.476,75.014 100.48,74.883 100.48,74.72L100.48,71.461C100.48,70.776 100.145,70.432 99.475,70.432L99.328,70.432C98.658,70.432 98.323,70.776 98.323,71.461L98.323,73.275L95.972,73.275L95.972,71.315C95.972,69.305 96.911,68.301 98.789,68.301L100.015,68.301C101.893,68.301 102.832,69.305 102.832,71.315L102.832,75.529C102.832,75.856 102.787,76.141 102.697,76.386C102.607,76.631 102.375,76.933 101.999,77.292L99.401,79.791C99.075,80.102 98.887,80.315 98.838,80.428C98.789,80.543 98.76,80.658 98.752,80.772C98.744,80.886 98.74,81.041 98.74,81.237L98.74,83.785L102.709,83.785Z" style="fill:rgb(158,30,99);fill-rule:nonzero;"/>
        <path d="M105.085,81.776L107.438,81.776L107.438,82.732C107.438,83.417 107.748,83.76 108.369,83.76L108.638,83.76C109.34,83.76 109.691,83.417 109.691,82.732L109.691,78.713C109.691,77.946 109.365,77.562 108.711,77.562L105.159,77.562L105.159,68.301L111.798,68.301L111.798,70.482L107.364,70.482L107.364,75.43L109.226,75.43C111.104,75.43 112.043,76.468 112.043,78.542L112.043,82.781C112.043,84.855 111.104,85.892 109.226,85.892L107.903,85.892C106.024,85.892 105.085,84.896 105.085,82.903L105.085,81.776Z" style="fill:rgb(158,30,99);fill-rule:nonzero;"/>
        <path d="M151.507,1.808C154.995,0.694 157.685,1.178 159.373,2.964C161.062,4.751 164.963,5.485 166.363,7.499C168.462,10.519 170.682,9.912 172.019,11.758C174.389,15.03 173.205,16.561 172.783,18.67C172.454,20.314 172.836,21.668 172.201,22.822C170.934,24.116 169.174,26.548 167.598,28.581C166.797,29.615 165.813,31.043 164.973,32.24C164.794,32.497 164.389,32.32 164.458,32.015C164.485,31.895 164.506,31.791 164.515,31.712C164.919,28.289 163.991,26.121 163.899,26.653C163.816,27.134 163.931,27.773 162.828,31.456C161.725,35.139 159.926,38.038 159.424,38.408C158.921,38.779 159.069,38.193 159.204,35.166C159.382,31.167 158.824,25.627 157.995,22.762C156.858,18.834 154.585,14.694 155.228,17.476C156.374,22.431 156.596,25.351 156.162,34.162C155.921,39.048 155.225,40.542 154.835,41.396C154.564,41.988 153.883,42.91 153.754,42.331C153.237,40.012 152.511,37.603 151.658,35.54C151.416,35.165 151.125,34.915 151.309,35.619C151.315,35.642 151.317,35.658 151.322,35.679C151.801,37.059 152.215,38.571 152.565,40.306C152.939,42.165 152.698,43.295 152.322,42.708C151.982,42.178 148.001,36.384 145.128,33.909C143.144,32.199 141.447,32.337 142.437,33.144C143.637,34.121 145.701,36.91 146.388,37.758C147.075,38.606 147.741,39.809 146.132,38.864C144.524,37.92 140.222,36.005 136.697,34.983C133.172,33.962 132.072,34.411 133.093,34.735C134.115,35.06 139.379,37.255 144.722,41.074C148.461,43.748 151.191,46.46 152.05,48.466C152.037,48.482 152.021,48.497 152.006,48.512C152.026,48.515 152.048,48.519 152.067,48.522C147.65,51.509 142.525,54.91 142.233,55.487C141.921,56.105 144.355,55.524 147.643,54.448C150.931,53.373 153.052,52.378 153.103,52.879C153.153,53.38 152.146,55.37 149.109,58.554C145.299,62.549 141.619,65.887 139.917,67.092C138.785,67.892 137.373,68.981 138.654,68.578C139.934,68.176 145.664,65.857 150.723,61.574C153.33,59.367 154.699,57.284 155.973,54.999C156.017,54.604 156.05,54.5 156.235,54.464C156.608,54.39 158.322,57.107 159.592,60.223C161.62,65.195 162.242,68.013 162.807,68.223C163.174,68.36 163.039,64.66 162.298,62.049C161.378,58.805 160.56,56.461 160.995,56.228C161.72,55.843 164.791,59.605 165.913,61.372C169,66.238 169.878,68.442 170.846,71.069C171.397,72.562 172.23,74.283 172.296,72.785C172.382,70.843 171.523,64.289 167.344,58.248C165.638,55.783 164.504,54.427 163.247,53.132C162.824,52.751 162.439,52.37 162.152,52.04C162.089,51.978 162.026,51.917 161.962,51.855C161.973,51.854 161.985,51.854 161.997,51.853C161.804,51.612 161.677,51.408 161.655,51.272C161.592,50.874 161.266,49.27 168.11,48.75C170.952,48.534 174.034,48.945 176.4,49.538C177.876,49.907 174.623,46.899 171.422,45.906C168.523,45.006 166.81,44.701 166.795,44.191C166.779,43.68 168.076,43.011 172.179,41.486C175.674,40.187 177.784,39.758 180.215,39.646C181.791,39.574 181.252,38.86 178.258,38.346C176.629,38.066 174.092,37.678 170.53,38.138C168.981,38.337 167.435,38.792 166.039,39.335C165.733,39.829 165.429,40.325 165.126,40.827C161.34,47.095 159.697,49.663 157.387,47.789C155.716,46.433 156.135,44.842 157.309,42.992C158.484,41.142 164.43,33.813 172.323,24.834C180.216,15.856 193.453,6.802 193.764,6.677C194.18,6.511 194.402,6.952 193.957,7.461C193.627,7.839 187.238,13.532 182.619,18.09C178.564,22.09 174.777,26.595 171.203,31.578C172.268,30.708 173.331,29.953 174.381,29.319C179.527,26.212 185.397,24.511 189.085,26.483C194.216,29.227 196.19,29.9 197.414,32.356C198.75,35.039 198.85,36.774 197.832,39.353C196.814,41.931 195.264,41.627 196.28,44.813C197.255,47.87 198.39,51.346 197.88,53.326C197.37,55.306 196.916,57.239 194.471,58.368C193.168,58.969 191.875,59.895 191.415,61.498C190.94,63.156 189.516,64.41 188.064,65.116C187.606,65.338 185.476,65.013 185.018,64.526C182.938,62.459 179.829,58.979 176.757,57.086C176.047,56.649 175.265,56.272 174.459,55.95C175.162,56.416 175.874,56.946 176.594,57.556C180.487,60.858 185.103,66.022 185.299,69.428C185.495,72.833 185.402,74.289 184.474,76.104C183.547,77.919 183.197,80.404 183.053,82.54C182.909,84.676 180.369,88.091 178.202,89.097C176.036,90.101 172.552,88.54 167.89,89.7C164.583,90.521 162.315,89.632 160.529,87.35C158.742,85.067 156.948,84.403 155.759,84.496C154.569,84.589 153.191,84.643 152.02,82.65C151.616,81.964 151.26,80.538 151.389,80.151C151.94,78.607 153.194,77.003 153.673,75.896C154.402,74.215 154.821,71.405 155.252,67.964C155.395,66.815 155.497,65.879 155.566,65.083C154.905,69.157 153.564,73.609 151.136,77.137C148.087,81.568 146.023,83.49 144.034,83.046C142.53,82.711 141.549,82.284 139.359,83.824C137.065,85.438 135.782,83.848 131.479,84.142C129.421,84.283 126.586,80.593 125.57,77.727C124.231,73.951 120.213,71.813 119.8,68.559C119.162,63.541 123.363,61.209 124.159,58.398C125.063,55.203 129.313,53.405 131.874,52.111C135.12,50.469 137.778,49.402 140.046,48.746C139.593,48.789 139.14,48.84 138.688,48.901C133.395,49.616 130.267,51.198 127.759,50.906C125.251,50.614 120.546,49.483 118.757,47.34C116.968,45.197 116.326,41.861 116.796,40.159C117.266,38.458 116.831,36.486 116.267,33.508C115.704,30.531 116.772,28.133 118.457,26.821C120.141,25.509 123.01,24.03 124.039,21.453C125.068,18.876 128.354,18.432 129.876,18.942C131.399,19.452 132.365,19.933 135.123,19.23C137.73,18.565 140.347,18.692 145.277,25.162C143.885,23.127 142.845,21.47 142.44,19.941C141.565,16.641 140.195,15.935 140.435,12.593C140.676,9.25 142.982,8.715 145.338,7.558C147.695,6.4 148.019,2.923 151.507,1.808Z" style="fill:url(#_Linear1);"/>
        <path d="M190.108,3.132C190.606,2.032 191.822,1.649 192.95,2.223C194.017,2.766 194.465,3.99 193.917,5.064C193.375,6.128 192.119,6.515 191.004,6.016C189.909,5.527 189.61,4.233 190.108,3.132Z" style="fill:url(#_Linear2);"/>
        <path d="M188.689,13.477C189.187,12.377 190.403,11.994 191.531,12.568C192.598,13.111 193.046,14.335 192.498,15.409C191.956,16.473 190.7,16.86 189.584,16.362C188.49,15.873 188.191,14.579 188.689,13.477Z" style="fill:url(#_Linear3);"/>
        <path d="M192.914,10.15C193.411,9.05 194.628,8.668 195.756,9.242C196.823,9.784 197.27,11.008 196.723,12.083C196.181,13.146 194.925,13.533 193.809,13.035C192.715,12.546 192.416,11.252 192.914,10.15Z" style="fill:url(#_Linear4);"/>
        <path d="M188.105,8.57C187.092,8.643 186.352,7.797 186.283,6.775C186.214,5.755 186.969,4.983 188.04,4.96C189.054,4.938 189.878,5.673 189.899,6.693C189.92,7.704 189.137,8.496 188.105,8.57Z" style="fill:url(#_Linear5);"/>
        <path d="M196.298,7.908C195.631,7.054 195.74,5.882 196.565,5.19C197.39,4.499 198.643,4.567 199.319,5.442C199.981,6.299 199.951,7.54 199.084,8.197C198.225,8.847 196.991,8.795 196.298,7.908Z" style="fill:url(#_Linear6);"/>
        <path d="M195.023,3.365C194.356,2.511 194.442,1.252 195.267,0.56C196.093,-0.132 197.323,-0.126 197.999,0.749C198.661,1.606 198.692,3.012 197.786,3.566C196.868,4.128 195.716,4.252 195.023,3.365Z" style="fill:url(#_Linear7);"/>
        <path d="M186.572,10.47C186.262,11.592 185.167,12.359 183.989,12.052C182.856,11.757 182.179,10.68 182.433,9.544C182.688,8.408 183.808,7.643 184.963,7.95C186.095,8.251 186.885,9.337 186.572,10.47Z" style="fill:url(#_Linear8);"/>
    </g>
    <defs>
        <linearGradient id="_Linear1" x1="0" y1="0" x2="1" y2="0" gradientUnits="userSpaceOnUse" gradientTransform="matrix(82.4003,0,0,82.4003,116.116,45.6059)"><stop offset="0" style="stop-color:rgb(159,30,99);stop-opacity:1"/><stop offset="0.6" style="stop-color:rgb(228,82,55);stop-opacity:1"/><stop offset="1" style="stop-color:rgb(241,90,41);stop-opacity:1"/></linearGradient>
        <linearGradient id="_Linear2" x1="0" y1="0" x2="1" y2="0" gradientUnits="userSpaceOnUse" gradientTransform="matrix(4.277,0,0,4.277,189.875,4.09417)"><stop offset="0" style="stop-color:rgb(159,30,99);stop-opacity:1"/><stop offset="0.6" style="stop-color:rgb(228,82,55);stop-opacity:1"/><stop offset="1" style="stop-color:rgb(241,90,41);stop-opacity:1"/></linearGradient>
        <linearGradient id="_Linear3" x1="0" y1="0" x2="1" y2="0" gradientUnits="userSpaceOnUse" gradientTransform="matrix(4.27698,0,0,4.27698,188.456,14.4397)"><stop offset="0" style="stop-color:rgb(159,30,99);stop-opacity:1"/><stop offset="0.6" style="stop-color:rgb(228,82,55);stop-opacity:1"/><stop offset="1" style="stop-color:rgb(241,90,41);stop-opacity:1"/></linearGradient>
        <linearGradient id="_Linear4" x1="0" y1="0" x2="1" y2="0" gradientUnits="userSpaceOnUse" gradientTransform="matrix(4.27697,0,0,4.27697,192.68,11.1128)"><stop offset="0" style="stop-color:rgb(159,30,99);stop-opacity:1"/><stop offset="0.6" style="stop-color:rgb(228,82,55);stop-opacity:1"/><stop offset="1" style="stop-color:rgb(241,90,41);stop-opacity:1"/></linearGradient>
        <linearGradient id="_Linear5" x1="0" y1="0" x2="1" y2="0" gradientUnits="userSpaceOnUse" gradientTransform="matrix(3.62091,0,0,3.62091,186.278,6.76636)"><stop offset="0" style="stop-color:rgb(159,30,99);stop-opacity:1"/><stop offset="0.6" style="stop-color:rgb(228,82,55);stop-opacity:1"/><stop offset="1" style="stop-color:rgb(241,90,41);stop-opacity:1"/></linearGradient>
        <linearGradient id="_Linear6" x1="0" y1="0" x2="1" y2="0" gradientUnits="userSpaceOnUse" gradientTransform="matrix(3.91628,0,0,3.91628,195.863,6.67875)"><stop offset="0" style="stop-color:rgb(159,30,99);stop-opacity:1"/><stop offset="0.6" style="stop-color:rgb(228,82,55);stop-opacity:1"/><stop offset="1" style="stop-color:rgb(241,90,41);stop-opacity:1"/></linearGradient>
        <linearGradient id="_Linear7" x1="0" y1="0" x2="1" y2="0" gradientUnits="userSpaceOnUse" gradientTransform="matrix(3.90396,0,0,3.90396,194.579,2.03666)"><stop offset="0" style="stop-color:rgb(159,30,99);stop-opacity:1"/><stop offset="0.6" style="stop-color:rgb(228,82,55);stop-opacity:1"/><stop offset="1" style="stop-color:rgb(241,90,41);stop-opacity:1"/></linearGradient>
        <linearGradient id="_Linear8" x1="0" y1="0" x2="1" y2="0" gradientUnits="userSpaceOnUse" gradientTransform="matrix(4.26056,0,0,4.26056,182.38,10.0005)"><stop offset="0" style="stop-color:rgb(159,30,99);stop-opacity:1"/><stop offset="0.6" style="stop-color:rgb(228,82,55);stop-opacity:1"/><stop offset="1" style="stop-color:rgb(241,90,41);stop-opacity:1"/></linearGradient>
    </defs>
</svg>
